<?xml version="1.0" encoding="utf-8" standalone="no"?>
<!DOCTYPE svg PUBLIC "-//W3C//DTD SVG 1.1//EN"
  "http://www.w3.org/Graphics/SVG/1.1/DTD/svg11.dtd">
<svg xmlns:xlink="http://www.w3.org/1999/xlink" width="576pt" height="360pt" viewBox="0 0 576 360" xmlns="http://www.w3.org/2000/svg" version="1.1">
 <metadata>
  <rdf:RDF xmlns:dc="http://purl.org/dc/elements/1.1/" xmlns:cc="http://creativecommons.org/ns#" xmlns:rdf="http://www.w3.org/1999/02/22-rdf-syntax-ns#">
   <cc:Work>
    <dc:type rdf:resource="http://purl.org/dc/dcmitype/StillImage"/>
    <dc:date>2024-09-18T01:29:49.411598</dc:date>
    <dc:format>image/svg+xml</dc:format>
    <dc:creator>
     <cc:Agent>
      <dc:title>Matplotlib v3.7.2, https://matplotlib.org/</dc:title>
     </cc:Agent>
    </dc:creator>
   </cc:Work>
  </rdf:RDF>
 </metadata>
 <defs>
  <style type="text/css">*{stroke-linejoin: round; stroke-linecap: butt}</style>
 </defs>
 <g id="figure_1">
  <g id="patch_1">
   <path d="M 0 360 
L 576 360 
L 576 0 
L 0 0 
z
" style="fill: #ffffff"/>
  </g>
  <g id="axes_1">
   <g id="LineCollection_1">
    <path d="M 287.999992 167.054702 
L 189.410212 302.869699 
" clip-path="url(#pe019af372f)" style="fill: none; stroke: #000000"/>
    <path d="M 287.999992 167.054702 
L 386.589703 302.869708 
" clip-path="url(#pe019af372f)" style="fill: none; stroke: #000000"/>
    <path d="M 287.999992 167.054702 
L 49.983471 110.798262 
" clip-path="url(#pe019af372f)" style="fill: none; stroke: #000000"/>
    <path d="M 287.999992 167.054702 
L 526.016483 110.798232 
" clip-path="url(#pe019af372f)" style="fill: none; stroke: #000000"/>
    <path d="M 287.999992 167.054702 
L 49.983486 223.31115 
" clip-path="url(#pe019af372f)" style="fill: none; stroke: #000000"/>
    <path d="M 287.999992 167.054702 
L 386.589627 31.239669 
" clip-path="url(#pe019af372f)" style="fill: none; stroke: #000000"/>
    <path d="M 287.999992 167.054702 
L 189.410205 31.239713 
" clip-path="url(#pe019af372f)" style="fill: none; stroke: #000000"/>
    <path d="M 189.410212 302.869699 
L 386.589703 302.869708 
" clip-path="url(#pe019af372f)" style="fill: none; stroke: #000000"/>
    <path d="M 189.410212 302.869699 
L 49.983471 110.798262 
" clip-path="url(#pe019af372f)" style="fill: none; stroke: #000000"/>
    <path d="M 189.410212 302.869699 
L 526.016483 110.798232 
" clip-path="url(#pe019af372f)" style="fill: none; stroke: #000000"/>
    <path d="M 189.410212 302.869699 
L 526.016529 223.311124 
" clip-path="url(#pe019af372f)" style="fill: none; stroke: #000000"/>
    <path d="M 189.410212 302.869699 
L 287.999992 328.760331 
" clip-path="url(#pe019af372f)" style="fill: none; stroke: #000000"/>
    <path d="M 386.589703 302.869708 
L 49.983471 110.798262 
" clip-path="url(#pe019af372f)" style="fill: none; stroke: #000000"/>
    <path d="M 386.589703 302.869708 
L 526.016483 110.798232 
" clip-path="url(#pe019af372f)" style="fill: none; stroke: #000000"/>
    <path d="M 386.589703 302.869708 
L 526.016529 223.311124 
" clip-path="url(#pe019af372f)" style="fill: none; stroke: #000000"/>
    <path d="M 386.589703 302.869708 
L 287.999992 328.760331 
" clip-path="url(#pe019af372f)" style="fill: none; stroke: #000000"/>
    <path d="M 49.983471 110.798262 
L 526.016483 110.798232 
" clip-path="url(#pe019af372f)" style="fill: none; stroke: #000000"/>
    <path d="M 49.983471 110.798262 
L 49.983486 223.31115 
" clip-path="url(#pe019af372f)" style="fill: none; stroke: #000000"/>
    <path d="M 526.016483 110.798232 
L 526.016529 223.311124 
" clip-path="url(#pe019af372f)" style="fill: none; stroke: #000000"/>
    <path d="M 386.589627 31.239669 
L 189.410205 31.239713 
" clip-path="url(#pe019af372f)" style="fill: none; stroke: #000000"/>
   </g>
   <g id="PathCollection_1">
    <defs>
     <path id="m4b0191298e" d="M 0 22.36068 
C 5.930122 22.36068 11.618159 20.004617 15.811388 15.811388 
C 20.004617 11.618159 22.36068 5.930122 22.36068 0 
C 22.36068 -5.930122 20.004617 -11.618159 15.811388 -15.811388 
C 11.618159 -20.004617 5.930122 -22.36068 0 -22.36068 
C -5.930122 -22.36068 -11.618159 -20.004617 -15.811388 -15.811388 
C -20.004617 -11.618159 -22.36068 -5.930122 -22.36068 0 
C -22.36068 5.930122 -20.004617 11.618159 -15.811388 15.811388 
C -11.618159 20.004617 -5.930122 22.36068 0 22.36068 
z
" style="stroke: #87ceeb"/>
    </defs>
    <g clip-path="url(#pe019af372f)">
     <use xlink:href="#m4b0191298e" x="287.999992" y="167.054702" style="fill: #87ceeb; stroke: #87ceeb"/>
     <use xlink:href="#m4b0191298e" x="189.410212" y="302.869699" style="fill: #87ceeb; stroke: #87ceeb"/>
     <use xlink:href="#m4b0191298e" x="386.589703" y="302.869708" style="fill: #87ceeb; stroke: #87ceeb"/>
     <use xlink:href="#m4b0191298e" x="49.983471" y="110.798262" style="fill: #87ceeb; stroke: #87ceeb"/>
     <use xlink:href="#m4b0191298e" x="526.016483" y="110.798232" style="fill: #87ceeb; stroke: #87ceeb"/>
     <use xlink:href="#m4b0191298e" x="526.016529" y="223.311124" style="fill: #87ceeb; stroke: #87ceeb"/>
     <use xlink:href="#m4b0191298e" x="49.983486" y="223.31115" style="fill: #87ceeb; stroke: #87ceeb"/>
     <use xlink:href="#m4b0191298e" x="386.589627" y="31.239669" style="fill: #87ceeb; stroke: #87ceeb"/>
     <use xlink:href="#m4b0191298e" x="189.410205" y="31.239713" style="fill: #87ceeb; stroke: #87ceeb"/>
     <use xlink:href="#m4b0191298e" x="287.999992" y="328.760331" style="fill: #87ceeb; stroke: #87ceeb"/>
    </g>
   </g>
   <g id="text_1">
    <g clip-path="url(#pe019af372f)">
     <!-- A -->
     <g transform="translate(279.791242 173.677202) scale(0.24 -0.24)">
      <defs>
       <path id="DejaVuSans-41" d="M 2188 4044 
L 1331 1722 
L 3047 1722 
L 2188 4044 
z
M 1831 4666 
L 2547 4666 
L 4325 0 
L 3669 0 
L 3244 1197 
L 1141 1197 
L 716 0 
L 50 0 
L 1831 4666 
z
" transform="scale(0.015625)"/>
      </defs>
      <use xlink:href="#DejaVuSans-41"/>
     </g>
    </g>
   </g>
   <g id="text_2">
    <g clip-path="url(#pe019af372f)">
     <!-- B -->
     <g transform="translate(181.177087 309.492199) scale(0.24 -0.24)">
      <defs>
       <path id="DejaVuSans-42" d="M 1259 2228 
L 1259 519 
L 2272 519 
Q 2781 519 3026 730 
Q 3272 941 3272 1375 
Q 3272 1813 3026 2020 
Q 2781 2228 2272 2228 
L 1259 2228 
z
M 1259 4147 
L 1259 2741 
L 2194 2741 
Q 2656 2741 2882 2914 
Q 3109 3088 3109 3444 
Q 3109 3797 2882 3972 
Q 2656 4147 2194 4147 
L 1259 4147 
z
M 628 4666 
L 2241 4666 
Q 2963 4666 3353 4366 
Q 3744 4066 3744 3513 
Q 3744 3084 3544 2831 
Q 3344 2578 2956 2516 
Q 3422 2416 3680 2098 
Q 3938 1781 3938 1306 
Q 3938 681 3513 340 
Q 3088 0 2303 0 
L 628 0 
L 628 4666 
z
" transform="scale(0.015625)"/>
      </defs>
      <use xlink:href="#DejaVuSans-42"/>
     </g>
    </g>
   </g>
   <g id="text_3">
    <g clip-path="url(#pe019af372f)">
     <!-- C -->
     <g transform="translate(378.210328 309.492208) scale(0.24 -0.24)">
      <defs>
       <path id="DejaVuSans-43" d="M 4122 4306 
L 4122 3641 
Q 3803 3938 3442 4084 
Q 3081 4231 2675 4231 
Q 1875 4231 1450 3742 
Q 1025 3253 1025 2328 
Q 1025 1406 1450 917 
Q 1875 428 2675 428 
Q 3081 428 3442 575 
Q 3803 722 4122 1019 
L 4122 359 
Q 3791 134 3420 21 
Q 3050 -91 2638 -91 
Q 1578 -91 968 557 
Q 359 1206 359 2328 
Q 359 3453 968 4101 
Q 1578 4750 2638 4750 
Q 3056 4750 3426 4639 
Q 3797 4528 4122 4306 
z
" transform="scale(0.015625)"/>
      </defs>
      <use xlink:href="#DejaVuSans-43"/>
     </g>
    </g>
   </g>
   <g id="text_4">
    <g clip-path="url(#pe019af372f)">
     <!-- D -->
     <g transform="translate(40.743471 117.420762) scale(0.24 -0.24)">
      <defs>
       <path id="DejaVuSans-44" d="M 1259 4147 
L 1259 519 
L 2022 519 
Q 2988 519 3436 956 
Q 3884 1394 3884 2338 
Q 3884 3275 3436 3711 
Q 2988 4147 2022 4147 
L 1259 4147 
z
M 628 4666 
L 1925 4666 
Q 3281 4666 3915 4102 
Q 4550 3538 4550 2338 
Q 4550 1131 3912 565 
Q 3275 0 1925 0 
L 628 0 
L 628 4666 
z
" transform="scale(0.015625)"/>
      </defs>
      <use xlink:href="#DejaVuSans-44"/>
     </g>
    </g>
   </g>
   <g id="text_5">
    <g clip-path="url(#pe019af372f)">
     <!-- E -->
     <g transform="translate(518.433983 117.420732) scale(0.24 -0.24)">
      <defs>
       <path id="DejaVuSans-45" d="M 628 4666 
L 3578 4666 
L 3578 4134 
L 1259 4134 
L 1259 2753 
L 3481 2753 
L 3481 2222 
L 1259 2222 
L 1259 531 
L 3634 531 
L 3634 0 
L 628 0 
L 628 4666 
z
" transform="scale(0.015625)"/>
      </defs>
      <use xlink:href="#DejaVuSans-45"/>
     </g>
    </g>
   </g>
   <g id="text_6">
    <g clip-path="url(#pe019af372f)">
     <!-- F -->
     <g transform="translate(519.114654 229.933624) scale(0.24 -0.24)">
      <defs>
       <path id="DejaVuSans-46" d="M 628 4666 
L 3309 4666 
L 3309 4134 
L 1259 4134 
L 1259 2759 
L 3109 2759 
L 3109 2228 
L 1259 2228 
L 1259 0 
L 628 0 
L 628 4666 
z
" transform="scale(0.015625)"/>
      </defs>
      <use xlink:href="#DejaVuSans-46"/>
     </g>
    </g>
   </g>
   <g id="text_7">
    <g clip-path="url(#pe019af372f)">
     <!-- G -->
     <g transform="translate(40.685361 229.93365) scale(0.24 -0.24)">
      <defs>
       <path id="DejaVuSans-47" d="M 3809 666 
L 3809 1919 
L 2778 1919 
L 2778 2438 
L 4434 2438 
L 4434 434 
Q 4069 175 3628 42 
Q 3188 -91 2688 -91 
Q 1594 -91 976 548 
Q 359 1188 359 2328 
Q 359 3472 976 4111 
Q 1594 4750 2688 4750 
Q 3144 4750 3555 4637 
Q 3966 4525 4313 4306 
L 4313 3634 
Q 3963 3931 3569 4081 
Q 3175 4231 2741 4231 
Q 1884 4231 1454 3753 
Q 1025 3275 1025 2328 
Q 1025 1384 1454 906 
Q 1884 428 2741 428 
Q 3075 428 3337 486 
Q 3600 544 3809 666 
z
" transform="scale(0.015625)"/>
      </defs>
      <use xlink:href="#DejaVuSans-47"/>
     </g>
    </g>
   </g>
   <g id="text_8">
    <g clip-path="url(#pe019af372f)">
     <!-- H -->
     <g transform="translate(377.565252 37.862169) scale(0.24 -0.24)">
      <defs>
       <path id="DejaVuSans-48" d="M 628 4666 
L 1259 4666 
L 1259 2753 
L 3553 2753 
L 3553 4666 
L 4184 4666 
L 4184 0 
L 3553 0 
L 3553 2222 
L 1259 2222 
L 1259 0 
L 628 0 
L 628 4666 
z
" transform="scale(0.015625)"/>
      </defs>
      <use xlink:href="#DejaVuSans-48"/>
     </g>
    </g>
   </g>
   <g id="text_9">
    <g clip-path="url(#pe019af372f)">
     <!-- I -->
     <g transform="translate(185.870205 37.862213) scale(0.24 -0.24)">
      <defs>
       <path id="DejaVuSans-49" d="M 628 4666 
L 1259 4666 
L 1259 0 
L 628 0 
L 628 4666 
z
" transform="scale(0.015625)"/>
      </defs>
      <use xlink:href="#DejaVuSans-49"/>
     </g>
    </g>
   </g>
   <g id="text_10">
    <g clip-path="url(#pe019af372f)">
     <!-- J -->
     <g transform="translate(284.459992 335.382831) scale(0.24 -0.24)">
      <defs>
       <path id="DejaVuSans-4a" d="M 628 4666 
L 1259 4666 
L 1259 325 
Q 1259 -519 939 -900 
Q 619 -1281 -91 -1281 
L -331 -1281 
L -331 -750 
L -134 -750 
Q 284 -750 456 -515 
Q 628 -281 628 325 
L 628 4666 
z
" transform="scale(0.015625)"/>
      </defs>
      <use xlink:href="#DejaVuSans-4a"/>
     </g>
    </g>
   </g>
  </g>
 </g>
 <defs>
  <clipPath id="pe019af372f">
   <rect x="0" y="0" width="576" height="360"/>
  </clipPath>
 </defs>
</svg>
